<svg xmlns="http://www.w3.org/2000/svg" version="1.1" xmlns:xlink="http://www.w3.org/1999/xlink" xmlns:svgjs="http://svgjs.com/svgjs" width="300" height="300" preserveAspectRatio="none" viewBox="0 0 300 300"><g mask="url(&quot;#SvgjsMask1085&quot;)" fill="none"><rect width="300" height="300" x="0" y="0" fill="rgba(0, 0, 0, 1)"></rect><use xlink:href="#SvgjsPath1086" x="30" y="30" stroke="rgba(96, 96, 96, 1)"></use><use xlink:href="#SvgjsPath1087" x="30" y="90" stroke="rgba(229, 49, 112, 1)"></use><use xlink:href="#SvgjsPath1086" x="30" y="150" stroke="rgba(96, 96, 96, 1)"></use><use xlink:href="#SvgjsPath1087" x="30" y="210" stroke="rgba(96, 96, 96, 1)"></use><use xlink:href="#SvgjsPath1087" x="30" y="270" stroke="rgba(229, 49, 112, 1)"></use><use xlink:href="#SvgjsPath1088" x="90" y="30" stroke="rgba(229, 49, 112, 1)"></use><use xlink:href="#SvgjsPath1087" x="90" y="90" stroke="rgba(229, 49, 112, 1)"></use><use xlink:href="#SvgjsPath1089" x="90" y="150" stroke="rgba(96, 96, 96, 1)"></use><use xlink:href="#SvgjsPath1088" x="90" y="210" stroke="rgba(229, 49, 112, 1)"></use><use xlink:href="#SvgjsPath1088" x="90" y="270" stroke="rgba(229, 49, 112, 1)"></use><use xlink:href="#SvgjsPath1088" x="150" y="30" stroke="rgba(96, 96, 96, 1)"></use><use xlink:href="#SvgjsPath1087" x="150" y="90" stroke="rgba(96, 96, 96, 1)"></use><use xlink:href="#SvgjsPath1087" x="150" y="150" stroke="rgba(96, 96, 96, 1)"></use><use xlink:href="#SvgjsPath1090" x="150" y="210" stroke="rgba(96, 96, 96, 1)"></use><use xlink:href="#SvgjsPath1086" x="150" y="270" stroke="rgba(96, 96, 96, 1)"></use><use xlink:href="#SvgjsPath1086" x="210" y="30" stroke="rgba(96, 96, 96, 1)"></use><use xlink:href="#SvgjsPath1089" x="210" y="90" stroke="rgba(96, 96, 96, 1)"></use><use xlink:href="#SvgjsPath1086" x="210" y="150" stroke="rgba(96, 96, 96, 1)"></use><use xlink:href="#SvgjsPath1087" x="210" y="210" stroke="rgba(96, 96, 96, 1)"></use><use xlink:href="#SvgjsPath1087" x="210" y="270" stroke="rgba(96, 96, 96, 1)"></use><use xlink:href="#SvgjsPath1089" x="270" y="30" stroke="rgba(96, 96, 96, 1)"></use><use xlink:href="#SvgjsPath1086" x="270" y="90" stroke="rgba(229, 49, 112, 1)"></use><use xlink:href="#SvgjsPath1086" x="270" y="150" stroke="rgba(229, 49, 112, 1)"></use><use xlink:href="#SvgjsPath1089" x="270" y="210" stroke="rgba(96, 96, 96, 1)"></use><use xlink:href="#SvgjsPath1087" x="270" y="270" stroke="rgba(96, 96, 96, 1)"></use></g><defs><mask id="SvgjsMask1085"><rect width="300" height="300" fill="#ffffff"></rect></mask><path d="M-1 0 a1 1 0 1 0 2 0 a1 1 0 1 0 -2 0z" id="SvgjsPath1088"></path><path d="M-3 0 a3 3 0 1 0 6 0 a3 3 0 1 0 -6 0z" id="SvgjsPath1090"></path><path d="M-5 0 a5 5 0 1 0 10 0 a5 5 0 1 0 -10 0z" id="SvgjsPath1086"></path><path d="M2 -2 L-2 2z" id="SvgjsPath1089"></path><path d="M6 -6 L-6 6z" id="SvgjsPath1087"></path><path d="M30 -30 L-30 30z"></path></defs></svg>