<svg xmlns="http://www.w3.org/2000/svg" width="55" height="38" viewBox="0 0 63 47" preserveAspectRatio="none" style="display: block;">
  <defs>
    <style>
      .cls-1 {
        fill: #fff;
      }
    </style>
  </defs>
  <g id="foget_password" transform="translate(-830 -837)">
    <path id="account-o" class="cls-1" d="M23.247,7.56a6.051,6.051,0,0,0-6.068,6.066,6.053,6.053,0,0,0,6.068,6.068,6.053,6.053,0,0,0,6.068-6.068,6.051,6.051,0,0,0-6.066-6.068Zm.068,26.179a32.871,32.871,0,0,0-11.862,2.25q-5.863,2.25-5.863,3.885v3.136h35.45V39.873q0-1.636-5.863-3.886A32.852,32.852,0,0,0,23.315,33.738ZM23.247,1.969A11.234,11.234,0,0,1,31.5,5.378,11.244,11.244,0,0,1,34.9,13.627,11.229,11.229,0,0,1,31.5,21.876a11.24,11.24,0,0,1-8.249,3.409A11.24,11.24,0,0,1,15,21.876a11.229,11.229,0,0,1-3.409-8.249A11.242,11.242,0,0,1,15,5.378a11.237,11.237,0,0,1,8.249-3.409Zm0,26.179a41.4,41.4,0,0,1,9.477,1.227A29.83,29.83,0,0,1,42.2,33.4q4.295,2.8,4.295,6.475V48.6H0V39.873Q0,36.192,4.295,33.4a29.805,29.805,0,0,1,9.477-4.021,41.5,41.5,0,0,1,9.477-1.227Z" transform="translate(841 835.031)"/>
    <g id="question" transform="translate(818.187 834.125)">
      <path id="icon" class="cls-1" d="M11.813,14.716h3.565a3.448,3.448,0,0,1,3.673-3.738c1.85,0,3.546.927,3.546,3.154,0,1.715-1.011,2.5-2.606,3.7-1.817,1.32-3.256,2.863-3.154,5.367l.019,1.251h3.53v-.959c0-1.939.737-2.5,2.727-4.014,1.644-1.251,3.36-2.638,3.36-5.553,0-4.081-3.446-6.052-7.219-6.052-3.582,0-7.525,1.748-7.438,6.841Zm4.218,14.9a2.543,2.543,0,0,0,2.727,2.5,2.533,2.533,0,1,0,0-5.043,2.539,2.539,0,0,0-2.725,2.539Z"/>
    </g>
  </g>
</svg>
