<svg xmlns="http://www.w3.org/2000/svg" width="55" height="30" viewBox="0 0 55 30">
  <defs>
    <style>
      .cls-1 {
        fill: #fff;
      }
    </style>
  </defs>
  <path id="key" class="cls-1" d="M30.225,22.516H58v12.02a2.76,2.76,0,1,1-5.5,0V28.521H47v6a2.761,2.761,0,1,1-5.5,0v-6H30.225C28.8,36.053,22.384,41.188,15.373,40.415S3.021,33.211,3,25.518c-.007-7.712,5.34-14.175,12.368-14.95s13.451,4.39,14.857,11.947ZM16.75,34.525c4.556,0,8.25-4.032,8.25-9.006s-3.694-9.006-8.25-9.006S8.5,20.544,8.5,25.518,12.194,34.525,16.75,34.525Z" transform="translate(-3 -10.492)"/>
</svg>
