<svg xmlns="http://www.w3.org/2000/svg" width="50" height="35" viewBox="0 0 60 43" preserveAspectRatio="none" style="display: block;">
  <defs>
    <style>
      .cls-1 {
        fill: #fff;
      }
    </style>
  </defs>
  <path id="account-add" class="cls-1" d="M40.7,24.916a11.231,11.231,0,0,1-8.248-3.409,11.244,11.244,0,0,1-3.409-8.248,11.232,11.232,0,0,1,3.409-8.25,11.682,11.682,0,0,1,16.5,0,11.222,11.222,0,0,1,3.409,8.248,11.24,11.24,0,0,1-3.409,8.248A11.24,11.24,0,0,1,40.7,24.914ZM14.588,19.053h8.725v5.863H14.588v8.725H8.725V24.916H0V19.053H8.725V10.328h5.863ZM40.7,30.777A41.418,41.418,0,0,1,50.173,32a29.814,29.814,0,0,1,9.476,4.022q4.3,2.8,4.294,6.342v5.863H17.452V42.368q0-3.545,4.3-6.34a29.816,29.816,0,0,1,9.474-4.022A41.4,41.4,0,0,1,40.7,30.779Z" transform="translate(0 -1.601)"/>
</svg>
