<svg xmlns="http://www.w3.org/2000/svg" width="65" height="75" viewBox="0 0 65 75" preserveAspectRatio="none" style="display: block;">
  <defs>
    <style>
      .cls-1 {
        fill: #fff;
      }
    </style>
  </defs>
  <path id="lock" class="cls-1" d="M60.357,75H4.643a4.5,4.5,0,0,1-3.264-1.354A4.49,4.49,0,0,1,0,70.313V37.5a4.494,4.494,0,0,1,1.378-3.333,4.49,4.49,0,0,1,3.264-1.354H9.286V23.438a23.033,23.033,0,0,1,3.12-11.756,23.328,23.328,0,0,1,8.45-8.531A22.5,22.5,0,0,1,32.5,0,22.448,22.448,0,0,1,44.144,3.15a23.371,23.371,0,0,1,8.45,8.531,23.018,23.018,0,0,1,3.12,11.756v9.375h4.643a4.47,4.47,0,0,1,3.3,1.354A4.542,4.542,0,0,1,65,37.5V70.313a4.557,4.557,0,0,1-1.341,3.333A4.455,4.455,0,0,1,60.357,75ZM23.214,70.313H41.786L35.909,55.592a9.618,9.618,0,0,0,4.245-3.442,9.394,9.394,0,0,0-1.087-11.9,9.221,9.221,0,0,0-13.132,0,9.394,9.394,0,0,0-1.087,11.9,9.618,9.618,0,0,0,4.245,3.442ZM46.429,23.438a13.623,13.623,0,0,0-4.063-9.96,13.337,13.337,0,0,0-9.83-4.1,13.431,13.431,0,0,0-9.866,4.1,13.572,13.572,0,0,0-4.1,9.96v9.375H46.429Z"/>
</svg>
